<?xml version="1.0" encoding="utf-8"?>
<!-- Generator: Adobe Illustrator 23.0.3, SVG Export Plug-In . SVG Version: 6.00 Build 0)  -->
<svg version="1.1" id="Layer_1" xmlns="http://www.w3.org/2000/svg" xmlns:xlink="http://www.w3.org/1999/xlink" x="0px" y="0px"
	 viewBox="0 0 750 284" style="enable-background:new 0 0 750 284;" xml:space="preserve">
<style type="text/css">
	.st0{fill:#FCDCFF;}
</style>
<path class="st0" d="M750,178.33c0-58.36-47.38-105.67-105.82-105.67c-44.91,0-83.29,27.94-98.65,67.37H338.45
	c-2.02-25.14-23.08-44.91-48.77-44.91c-4.38,0-8.62,0.58-12.66,1.66C258.11,40.52,204.89,0,142.2,0C63.66,0,0,63.58,0,142
	s63.66,142,142.2,142c2.44,0,4.87-0.06,7.28-0.18V284h501.32v-0.21C706.15,280.38,750,234.47,750,178.33z"/>
</svg>
